<svg width="46" height="36" viewBox="0 0 46 36" fill="none" xmlns="http://www.w3.org/2000/svg">
<path d="M42.9744 19.4374C39.4766 22.9981 33.6523 21.8056 33.6523 21.8056V14.6842L13.1767 35.5108L10.8503 33.1426L31.3094 12.2992H24.3137C24.3137 12.2992 23.1423 6.37038 26.6401 2.8097C30.138 -0.757694 35.9787 0.424719 35.9787 0.424719V7.56287L37.1502 6.37038L39.4766 8.73856L38.3051 9.93105H45.3173C45.3173 9.93105 46.4723 15.8767 42.9744 19.4374Z" fill="#29262C"/>
<path d="M3.02559 19.6906C6.52344 23.2511 12.3477 22.0586 12.3477 22.0586V14.9377L32.8233 35.7631L35.1497 33.3951L14.6906 12.5528H21.6863C21.6863 12.5528 22.8577 6.62429 19.3599 3.06381C15.862 -0.503394 10.0213 0.678955 10.0213 0.678955V7.81671L8.84984 6.62429L6.52344 8.99234L7.69489 10.1848H0.682698C0.682698 10.1848 -0.472251 16.1301 3.02559 19.6906Z" fill="#29262C"/>
</svg>
