<svg width="40" height="42" viewBox="0 0 40 42" fill="none" xmlns="http://www.w3.org/2000/svg">
<path d="M20.0045 28.1964C18.0959 28.1964 16.2655 27.4382 14.9159 26.0886C13.5664 24.739 12.8082 22.9086 12.8082 21C12.8082 19.0914 13.5664 17.261 14.9159 15.9114C16.2655 14.5618 18.0959 13.8037 20.0045 13.8037C21.9131 13.8037 23.7436 14.5618 25.0931 15.9114C26.4427 17.261 27.2009 19.0914 27.2009 21C27.2009 22.9086 26.4427 24.739 25.0931 26.0886C23.7436 27.4382 21.9131 28.1964 20.0045 28.1964ZM35.2814 22.9945C35.3637 22.3365 35.4253 21.6785 35.4253 21C35.4253 20.3215 35.3637 19.643 35.2814 18.9439L39.6198 15.5925C40.0105 15.2841 40.1133 14.7289 39.8665 14.2766L35.7543 7.16243C35.5076 6.71009 34.9524 6.52504 34.5001 6.71009L29.3804 8.7662C28.3112 7.96431 27.2009 7.26524 25.9056 6.75121L25.1448 1.30253C25.0626 0.809064 24.6308 0.438965 24.1168 0.438965H15.8923C15.3783 0.438965 14.9465 0.809064 14.8643 1.30253L14.1035 6.75121C12.8082 7.26524 11.6979 7.96431 10.6287 8.7662L5.50899 6.71009C5.05665 6.52504 4.5015 6.71009 4.25477 7.16243L0.142553 14.2766C-0.124741 14.7289 -0.0013741 15.2841 0.389286 15.5925L4.72767 18.9439C4.64543 19.643 4.58374 20.3215 4.58374 21C4.58374 21.6785 4.64543 22.3365 4.72767 22.9945L0.389286 26.4076C-0.0013741 26.716 -0.124741 27.2712 0.142553 27.7235L4.25477 34.8376C4.5015 35.29 5.05665 35.4545 5.50899 35.29L10.6287 33.2133C11.6979 34.0357 12.8082 34.7348 14.1035 35.2488L14.8643 40.6975C14.9465 41.191 15.3783 41.5611 15.8923 41.5611H24.1168C24.6308 41.5611 25.0626 41.191 25.1448 40.6975L25.9056 35.2488C27.2009 34.7143 28.3112 34.0357 29.3804 33.2133L34.5001 35.29C34.9524 35.4545 35.5076 35.29 35.7543 34.8376L39.8665 27.7235C40.1133 27.2712 40.0105 26.716 39.6198 26.4076L35.2814 22.9945Z" fill="#29262C"/>
</svg>
