<svg width="38" height="48" viewBox="0 0 38 48" fill="none" xmlns="http://www.w3.org/2000/svg">
<path d="M19 0.777771L38 9.22222V21.8889C38 33.5 29.9778 44.4778 19 47.2222C8.02222 44.4778 0 33.5 0 21.8889V9.22222L19 0.777771ZM19 5.42222L4.22222 11.9667V22.3111C4.22222 31.3889 10.9778 40.8889 19 43C27.0222 40.8889 33.7778 31.3889 33.7778 22.3111V11.9667L19 5.42222ZM19 10.2778L23.2222 13.6555L21.1111 26.1111H25.3333V30.3333H21.1111V36.6667H16.8889V30.3333H12.6667V26.1111H16.8889L14.7778 13.6555L19 10.2778Z" fill="#29262C"/>
</svg>
