<svg width="40" height="40" viewBox="0 0 40 40" fill="none" xmlns="http://www.w3.org/2000/svg">
<path d="M36 36C36 38.22 34.22 40 32 40C29.78 40 28 38.2 28 36C28 33.78 29.78 32 32 32C34.22 32 36 33.8 36 36ZM12 32C9.78 32 8 33.78 8 36C8 38.2 9.78 40 12 40C14.22 40 16 38.22 16 36C16 33.78 14.22 32 12 32ZM12.4 25.26L12.34 25.5C12.34 25.78 12.56 26 12.84 26H36V30H12C9.78 30 8 28.2 8 26C8 25.3 8.18 24.64 8.48 24.08L11.2 19.18L4 4H0V0H6.54L8.42 4H38C39.1 4 40 4.9 40 6C40 6.34 39.9 6.68 39.76 7L32.6 19.94C31.92 21.16 30.6 22 29.1 22H14.2L12.4 25.26ZM15 18H18V14H13.12L15 18ZM20 14V18H26V14H20ZM26 12V8H20V12H26ZM32.22 14H28V18H30L32.22 14ZM35.56 8H28V12H33.34L35.56 8ZM10.28 8L12.16 12H18V8H10.28Z" fill="#29262C"/>
</svg>
