<svg width="56" height="44" viewBox="0 0 56 44" fill="none" xmlns="http://www.w3.org/2000/svg">
<path d="M0.235962 44H55.236V8.25C55.236 6.05 54.356 3.96 52.816 2.42C51.276 0.88 49.186 0 46.986 0H8.48596C6.28596 0 4.19596 0.88 2.65596 2.42C1.11596 3.96 0.235962 6.05 0.235962 8.25V44ZM49.736 19.25H35.986V13.75H19.486V19.25H5.73596V8.25C5.73596 7.535 6.03846 6.875 6.53346 6.2975C7.11096 5.8025 7.77096 5.5 8.48596 5.5H46.986C47.7285 5.5 48.361 5.8025 48.9385 6.2975C49.461 6.875 49.736 7.535 49.736 8.25V19.25ZM35.986 24.75H49.736V38.5H5.73596V24.75H19.486L24.986 30.25H30.486L35.986 24.75ZM24.986 19.25H30.486V24.75H24.986V19.25Z" fill="#29262C"/>
</svg>
