<svg width="26" height="42" viewBox="0 0 26 42" fill="none" xmlns="http://www.w3.org/2000/svg">
<path d="M8.87307 35.6529H15.1529V41.9327H8.87307V35.6529ZM13.0596 0.0673218C24.2586 0.527841 29.1359 11.8315 22.4793 20.3092C20.7419 22.4025 17.9369 23.784 16.5554 25.5424C15.1529 27.2798 15.1529 29.3731 15.1529 31.4663H8.87307C8.87307 27.9706 8.87307 25.0191 10.2756 22.9258C11.6571 20.8325 14.4621 19.5975 16.1995 18.216C21.2652 13.527 20.0093 6.89138 13.0596 6.34713C11.3941 6.34713 9.79681 7.00875 8.61911 8.18644C7.44142 9.36413 6.7798 10.9614 6.7798 12.6269H0.5C0.5 9.29591 1.82324 6.10133 4.17862 3.74595C6.53401 1.39056 9.72859 0.0673218 13.0596 0.0673218Z" fill="#29262C"/>
</svg>
