<svg width="40" height="46" viewBox="0 0 40 46" fill="currentColor" xmlns="http://www.w3.org/2000/svg">
<path d="M28.8889 34.1111V27.4444H13.3333V18.5555H28.8889V11.8889L40 23L28.8889 34.1111ZM24.4444 0.777771C25.6232 0.777771 26.7536 1.24602 27.5871 2.07952C28.4206 2.91301 28.8889 4.04348 28.8889 5.22222V9.66666H24.4444V5.22222H4.44444V40.7778H24.4444V36.3333H28.8889V40.7778C28.8889 41.9565 28.4206 43.087 27.5871 43.9205C26.7536 44.754 25.6232 45.2222 24.4444 45.2222H4.44444C3.2657 45.2222 2.13524 44.754 1.30175 43.9205C0.468252 43.087 0 41.9565 0 40.7778V5.22222C0 4.04348 0.468252 2.91301 1.30175 2.07952C2.13524 1.24602 3.2657 0.777771 4.44444 0.777771H24.4444Z" fill="#29262C"/>
</svg>
